<?xml version="1.0" standalone="no"?>
<!DOCTYPE svg PUBLIC "-//W3C//DTD SVG 20010904//EN"
 "http://www.w3.org/TR/2001/REC-SVG-20010904/DTD/svg10.dtd">
<svg version="1.0" xmlns="http://www.w3.org/2000/svg"
 width="576.000000pt" height="576.000000pt" viewBox="0 0 576.000000 576.000000"
 preserveAspectRatio="xMidYMid meet">
<metadata>
Created by potrace 1.14, written by Peter Selinger 2001-2017
</metadata>
<g transform="translate(0.000000,576.000000) scale(0.100000,-0.100000)"
fill="#000000" stroke="none">
<path d="M2538 5435 c-2 -2 -48 -6 -103 -10 -55 -3 -120 -8 -145 -10 -119 -11
-158 -15 -190 -19 -33 -5 -180 -25 -225 -31 -132 -17 -485 -106 -605 -152 -8
-4 -17 -7 -20 -7 -25 -5 -252 -112 -295 -139 -57 -35 -164 -119 -193 -151 -71
-78 -123 -191 -122 -263 1 -64 2 -229 1 -243 -3 -42 1 -145 5 -152 3 -4 1 -8
-3 -8 -5 0 -7 -17 -5 -39 4 -44 0 -48 -54 -57 -147 -22 -266 -170 -265 -331 1
-32 1 -89 2 -127 0 -39 2 -73 5 -78 3 -4 2 -8 -3 -8 -4 0 -7 -53 -5 -117 2
-65 2 -136 2 -158 -7 -191 17 -280 94 -359 46 -46 112 -81 167 -89 51 -6 61
-14 59 -51 -1 -17 -1 -35 0 -41 1 -5 2 -13 2 -16 -2 -16 -3 -256 -2 -368 1
-36 3 -68 6 -73 3 -4 2 -8 -3 -8 -4 0 -6 -36 -3 -81 3 -44 3 -85 0 -89 -3 -5
-3 -40 0 -79 3 -39 3 -71 0 -71 -3 0 -4 -39 -3 -87 2 -103 3 -182 2 -203 0 -8
0 -33 0 -55 1 -22 0 -47 0 -55 -1 -16 0 -104 2 -160 1 -19 1 -42 0 -50 -5 -72
4 -183 18 -227 34 -111 161 -206 283 -212 14 -1 18 -10 18 -38 0 -21 0 -47 0
-58 1 -11 1 -47 1 -80 0 -159 2 -200 15 -241 24 -81 88 -154 172 -195 45 -23
55 -24 292 -24 l245 0 55 29 c75 39 135 107 160 181 11 33 20 72 19 85 0 31 0
170 0 190 1 17 0 90 -1 99 -5 49 -2 51 95 51 140 0 170 -1 179 -6 4 -3 8 -2 8
3 0 4 27 8 60 8 33 0 60 -2 60 -5 0 -3 27 -5 60 -5 33 0 60 2 60 5 0 3 47 3
105 0 58 -3 105 -1 105 3 0 5 4 6 8 3 5 -3 37 -5 73 -6 112 -1 303 -1 339 0
19 1 41 2 48 1 6 -1 18 -1 25 -2 13 -1 111 0 167 2 19 1 40 1 45 1 6 -1 62 -1
125 -1 157 0 148 0 218 -1 34 0 67 2 72 5 5 3 11 1 14 -3 3 -5 17 -7 31 -4 23
4 25 2 25 -34 0 -22 0 -48 0 -59 1 -11 1 -47 1 -80 0 -159 2 -200 15 -241 24
-81 88 -154 172 -195 45 -23 55 -24 292 -24 l245 0 55 29 c128 67 184 177 181
361 0 6 0 39 0 75 0 73 0 92 -2 134 0 35 1 36 42 41 60 7 129 32 129 46 0 5 6
9 13 9 19 0 83 76 108 129 16 33 23 71 26 131 5 104 4 211 -3 222 -3 4 -2 8 3
8 4 0 6 36 3 81 -3 44 -3 85 0 89 3 5 3 40 0 79 -3 39 -3 71 0 71 3 0 3 36 0
81 -3 44 -3 85 0 89 3 5 3 40 0 79 -3 39 -3 71 0 71 3 0 3 36 0 81 -3 44 -3
85 0 89 3 5 3 40 0 79 -3 39 -3 71 0 71 3 0 3 36 0 81 -3 44 -3 85 0 89 3 5 3
40 0 79 -3 39 -3 71 0 71 3 0 4 17 2 39 -4 44 0 48 54 57 59 8 134 51 181 103
58 63 83 140 80 249 -1 45 0 82 3 82 3 0 5 27 5 60 0 33 -2 60 -5 60 -4 0 -4
117 1 130 1 3 1 8 1 11 -1 7 -2 32 -2 119 -2 226 -14 279 -84 354 -37 40 -108
86 -145 93 -14 3 -33 6 -41 8 -8 2 -23 4 -34 4 -15 1 -17 7 -14 31 3 17 2 30
-2 30 -4 0 -4 21 0 48 3 26 3 64 -1 84 -3 20 -3 41 0 47 3 5 4 46 1 90 -3 45
-2 81 2 81 4 0 6 6 3 13 -2 6 -6 43 -9 81 -10 127 -101 262 -241 356 -27 19
-52 37 -55 41 -12 16 -263 129 -363 163 -92 31 -293 88 -362 102 -56 11 -73
14 -105 19 -19 3 -46 8 -60 10 -62 13 -77 15 -110 20 -49 6 -97 13 -155 21
-52 7 -57 7 -195 19 -47 4 -107 9 -135 12 -60 5 -792 12 -797 8z m-218 -635
c0 -3 27 -5 60 -5 33 0 60 2 60 5 0 3 54 3 120 0 66 -3 120 -3 120 0 0 5 45 5
175 0 28 -1 55 -1 60 0 6 1 13 2 16 2 3 -1 25 -1 48 -2 75 0 125 -1 234 -3 59
-1 107 0 107 3 0 3 28 4 62 3 59 -2 184 -3 218 -2 47 2 139 -10 158 -20 39
-21 73 -77 77 -127 5 -61 -14 -104 -60 -140 -31 -23 -49 -29 -109 -32 -93 -4
-218 -2 -228 4 -4 3 -8 1 -8 -3 0 -5 -32 -6 -71 -3 -39 3 -74 3 -79 0 -4 -3
-45 -3 -89 0 -45 3 -81 3 -81 0 0 -3 -32 -3 -71 0 -39 3 -74 3 -79 0 -4 -3
-45 -3 -89 0 -45 3 -81 1 -81 -3 0 -5 -4 -6 -8 -3 -5 3 -37 5 -73 6 -97 1
-302 2 -319 1 -8 -1 -31 -1 -50 0 -19 0 -42 0 -50 0 -63 -2 -123 0 -131 5 -5
3 -9 1 -9 -4 0 -6 -8 -8 -17 -6 -10 2 -38 6 -63 8 -25 2 -49 5 -53 5 -5 1 -26
18 -47 40 -29 29 -40 50 -45 84 -8 53 -1 81 32 125 27 36 57 52 118 61 48 7
245 8 245 1z m-519 -640 c21 4 43 4 50 -1 7 -4 16 -6 20 -4 5 4 86 6 129 4 8
0 33 0 55 1 22 0 93 0 158 -2 64 -2 117 1 117 5 0 5 4 6 8 3 5 -3 37 -5 73 -6
87 -1 259 -1 286 -1 24 1 25 -7 24 -164 0 -11 0 -63 0 -115 1 -52 1 -101 0
-107 0 -7 0 -52 0 -100 0 -49 -1 -110 -2 -138 0 -27 -1 -54 0 -60 0 -5 0 -53
0 -105 1 -173 2 -224 7 -232 3 -4 2 -8 -3 -8 -6 0 -7 -91 -2 -205 1 -5 0 -32
0 -60 -2 -58 -2 -214 -1 -267 l1 -36 -63 -1 c-35 0 -103 0 -153 0 -49 0 -99 0
-110 0 -11 -1 -36 -1 -55 0 -19 0 -42 0 -50 0 -8 0 -40 0 -70 0 -65 1 -69 1
-95 -1 -11 -1 -38 -2 -60 -1 -22 0 -47 0 -55 0 -8 -1 -37 0 -65 0 -27 1 -80 0
-118 -1 -37 -2 -67 -1 -67 2 0 3 -24 3 -52 0 -76 -7 -194 8 -246 32 -24 12
-63 40 -86 62 -72 72 -98 149 -96 291 1 28 1 57 1 65 -1 8 -1 33 0 55 0 22 0
47 0 55 0 8 0 38 0 65 1 28 1 57 0 65 0 8 -1 33 0 55 0 22 0 47 0 55 0 8 0 38
0 65 1 28 1 57 0 65 0 8 -1 33 0 55 0 22 0 47 0 55 -2 60 0 252 3 282 5 45 35
128 47 128 5 0 9 6 9 13 0 20 76 83 129 108 34 16 71 23 141 26 52 3 100 6
105 7 6 2 19 0 29 -4 11 -4 36 -4 57 0z m1534 1 c28 -1 65 -1 84 -1 18 -1 36
-1 40 -2 3 0 8 0 11 1 13 5 130 5 130 1 0 -3 27 -5 60 -5 33 0 60 2 60 5 0 3
54 3 120 0 66 -3 120 -3 120 0 0 3 27 5 60 5 33 0 60 -2 60 -5 0 -3 37 -5 83
-6 98 -1 159 -26 223 -90 59 -60 85 -123 87 -206 1 -37 4 -68 8 -68 3 0 2 -25
-1 -55 -3 -30 -4 -55 -1 -55 4 0 6 -27 6 -60 0 -33 -2 -60 -5 -60 -3 0 -5 -27
-5 -60 0 -33 2 -60 5 -60 3 0 5 -27 5 -60 0 -33 -2 -60 -5 -60 -3 0 -4 -46 -3
-102 2 -57 3 -134 2 -173 0 -38 0 -79 1 -90 2 -87 -5 -147 -25 -200 -10 -25
-22 -45 -26 -45 -5 0 -9 -6 -9 -13 0 -20 -76 -83 -129 -108 -35 -17 -66 -22
-133 -23 -49 0 -88 -3 -88 -6 0 -3 -32 -3 -71 0 -39 3 -74 3 -79 0 -4 -3 -51
-3 -104 0 -53 3 -96 3 -96 0 0 -3 -27 -5 -60 -5 -33 0 -60 2 -60 5 0 3 -27 5
-60 5 -33 0 -60 -2 -60 -5 0 -3 -27 -5 -60 -5 -33 0 -60 2 -60 5 0 4 -33 4
-150 0 -14 0 -57 -1 -96 0 l-71 0 -2 53 c-3 59 -3 64 -1 92 1 11 1 85 1 165 0
80 0 152 0 160 0 8 0 80 0 160 0 80 0 152 0 160 0 8 0 80 0 160 0 80 0 152 1
160 0 8 -1 35 -2 60 -1 25 -1 93 0 152 1 59 -1 112 -5 118 -3 5 -3 10 2 10 4
0 7 33 6 74 -3 88 -13 82 142 79 55 -1 123 -2 150 -2z m-1760 -2112 c240 -113
242 -455 4 -575 -46 -24 -66 -28 -139 -28 -101 0 -160 23 -225 90 -35 36 -48
56 -84 134 -7 15 -7 153 1 180 16 59 98 170 125 170 7 0 13 4 13 9 0 9 5 11
75 35 59 21 170 13 230 -15z m2879 0 c147 -69 218 -238 166 -393 -25 -75 -84
-143 -160 -182 -48 -26 -65 -29 -140 -28 -69 0 -94 5 -134 25 -60 29 -125 92
-150 145 -10 21 -21 46 -25 54 -7 15 -7 152 1 180 20 81 113 179 198 209 73
26 177 22 244 -10z"/>
</g>
</svg>
