<svg width="25" height="27" viewBox="0 0 25 27" fill="none" xmlns="http://www.w3.org/2000/svg">
<path d="M24.9773 21.7858L23.4006 2.53877C23.3767 2.24715 23.3009 1.99012 23.173 1.76769C23.0452 1.54525 22.8757 1.34532 22.6645 1.16788C22.4541 0.989396 22.2288 0.855193 21.9885 0.765274C21.7483 0.675354 21.4828 0.641814 21.192 0.664652L1.94501 2.24138C1.41037 2.28517 0.952453 2.5189 0.571255 2.94254C0.190057 3.36619 0.0232692 3.86866 0.0708889 4.44996C0.0923767 5.01089 0.314495 5.48248 0.737247 5.86473C1.16 6.24698 1.66292 6.41324 2.246 6.36352L16.5355 5.19292L1.57594 22.8221C1.19666 23.2691 1.02995 23.7725 1.07582 24.3324C1.12169 24.8924 1.36803 25.361 1.81484 25.7383C2.26182 26.1176 2.76482 26.2849 3.32384 26.24C3.88286 26.1952 4.35193 25.9484 4.73106 25.4994L19.6906 7.87024L20.8612 22.1597C20.905 22.6943 21.1446 23.1581 21.5799 23.5511C22.0153 23.9441 22.5119 24.105 23.0698 24.0338C23.6307 24.0123 24.1008 23.7781 24.4801 23.3311C24.8594 22.8842 25.0251 22.369 24.9773 21.7858Z" fill="#111111"/>
</svg>
